<?xml version="1.0" encoding="UTF-8" standalone="no"?>
<!DOCTYPE svg PUBLIC "-//W3C//DTD SVG 1.1//EN" "http://www.w3.org/Graphics/SVG/1.1/DTD/svg11.dtd">
<svg width="100%" height="100%" viewBox="0 0 2245 1182" version="1.1" xmlns="http://www.w3.org/2000/svg" xmlns:xlink="http://www.w3.org/1999/xlink" xml:space="preserve" xmlns:serif="http://www.serif.com/" style="fill-rule:evenodd;clip-rule:evenodd;stroke-linejoin:round;stroke-miterlimit:1.41421;">
    <g id="md-publisher-logo" transform="matrix(1,0,0,1,-64.1576,13.6702)">
        <g transform="matrix(1,0,0,1,114.581,-109.073)">
            <g transform="matrix(1,0,0,1,-580.501,402.506)">
                <g transform="matrix(0.794886,0,0,1,254.508,0)">
                    <rect x="1112.54" y="436.887" width="257.361" height="215.499"/>
                </g>
                <g transform="matrix(2.51045,0,0,2.51045,-1891.78,-804.656)">
                    <g transform="matrix(68.8891,0,0,68.8891,1215.13,560.903)">
                        <path d="M0.02,-0.684L0.02,-0.721L0.261,-0.721L0.476,-0.152L0.675,-0.721L0.921,-0.721L0.921,-0.684L0.847,-0.684C0.82,-0.684 0.807,-0.67 0.807,-0.643L0.807,-0.072C0.807,-0.049 0.823,-0.037 0.857,-0.037L0.921,-0.037L0.921,-0L0.591,-0L0.591,-0.037L0.661,-0.037C0.674,-0.037 0.684,-0.04 0.692,-0.046C0.7,-0.053 0.704,-0.061 0.704,-0.072L0.704,-0.685L0.465,-0L0.432,-0L0.176,-0.682L0.176,-0.158C0.176,-0.113 0.185,-0.081 0.203,-0.063C0.221,-0.046 0.251,-0.037 0.294,-0.037L0.294,-0L0.02,-0L0.02,-0.037C0.062,-0.037 0.092,-0.046 0.109,-0.062C0.127,-0.079 0.136,-0.109 0.136,-0.152L0.136,-0.65C0.136,-0.673 0.121,-0.684 0.093,-0.684L0.02,-0.684Z" style="fill:white;fill-rule:nonzero;"/>
                    </g>
                </g>
            </g>
            <g transform="matrix(2.51045,0,0,2.51045,-2273.85,-398.971)">
                <path d="M1243.09,551.36L1245.31,552.3C1242.04,558.663 1237.31,561.844 1231.13,561.844C1226.87,561.844 1223.32,560.332 1220.48,557.308C1217.63,554.283 1216.21,550.374 1216.21,545.58C1216.21,540.517 1217.6,536.394 1220.38,533.213C1223.15,530.032 1226.67,528.441 1230.93,528.441C1235.23,528.441 1238.67,529.954 1241.24,532.978C1243.82,536.002 1245.11,540.18 1245.11,545.512L1222.53,545.512C1222.53,547.26 1222.64,548.806 1222.86,550.15C1223.09,551.494 1223.47,552.659 1224.01,553.645C1225.84,557.095 1228.69,558.82 1232.54,558.82C1236.93,558.82 1240.45,556.333 1243.09,551.36ZM1222.53,542.958L1236.17,542.958C1237.87,542.958 1238.72,541.838 1238.72,539.598C1238.72,537.089 1237.97,534.949 1236.47,533.18C1234.97,531.41 1233.14,530.525 1231,530.525C1228.49,530.525 1226.45,531.623 1224.88,533.818C1223.31,536.014 1222.53,539.06 1222.53,542.958Z" style="fill-rule:nonzero;stroke:white;stroke-width:0.4px;"/>
                <path d="M1272.13,560.903L1271.32,554.518C1268.68,559.133 1265.27,561.441 1261.1,561.441C1257.43,561.441 1254.36,559.906 1251.9,556.837C1249.43,553.768 1248.2,549.814 1248.2,544.975C1248.2,540.18 1249.52,536.249 1252.16,533.18C1254.81,530.11 1257.99,528.576 1261.71,528.576C1265.79,528.576 1268.99,530.57 1271.32,534.557L1271.32,516.814C1271.32,514.753 1269.8,513.723 1266.75,513.723L1264.6,513.723L1264.6,511.236L1276.9,510.564L1276.9,553.645C1276.9,556.781 1278.15,558.349 1280.66,558.349L1282.88,558.349L1282.88,560.903L1272.13,560.903ZM1262.58,531.197C1257.3,531.197 1254.65,535.476 1254.65,544.034C1254.65,553.577 1257.27,558.349 1262.52,558.349C1265.11,558.349 1267.23,557.095 1268.87,554.586C1270.5,552.076 1271.32,548.582 1271.32,544.101C1271.32,540.248 1270.49,537.134 1268.83,534.759C1267.17,532.384 1265.09,531.197 1262.58,531.197Z" style="fill-rule:nonzero;stroke:white;stroke-width:0.4px;"/>
                <path d="M1293.57,510.564C1294.6,510.564 1295.49,510.945 1296.25,511.706C1297.02,512.468 1297.4,513.387 1297.4,514.462C1297.4,515.492 1297.04,516.366 1296.32,517.083C1295.61,517.8 1294.71,518.158 1293.63,518.158C1292.56,518.158 1291.66,517.8 1290.94,517.083C1290.23,516.366 1289.87,515.492 1289.87,514.462C1289.87,513.431 1290.24,512.524 1290.98,511.74C1291.72,510.956 1292.58,510.564 1293.57,510.564ZM1284.9,531.936L1284.9,529.382L1297.4,528.845L1297.4,556.064C1297.4,557.588 1298.23,558.349 1299.88,558.349L1303.45,558.349L1303.45,560.903L1285.57,560.903L1285.57,558.349L1288.86,558.349C1290.83,558.349 1291.82,557.408 1291.82,555.527L1291.82,535.7C1291.82,533.191 1290.38,531.936 1287.52,531.936L1284.9,531.936Z" style="fill-rule:nonzero;stroke:white;stroke-width:0.4px;"/>
                <path d="M1305.06,529.382L1316.22,528.845L1316.22,549.679C1316.22,552.188 1316.85,554.171 1318.13,555.627C1319.41,557.084 1321.08,557.812 1323.14,557.812C1325.6,557.812 1327.72,556.77 1329.49,554.686C1331.26,552.603 1332.14,550.06 1332.14,547.058L1332.14,535.229C1332.14,533.885 1331.7,532.978 1330.8,532.507C1329.9,532.037 1328.52,531.802 1326.63,531.802L1326.63,529.382L1337.72,528.845L1337.72,554.72C1337.72,557.14 1338.98,558.349 1341.49,558.349L1343.5,558.349L1343.5,560.634L1332.88,560.903L1332.21,554.72C1330.33,556.916 1328.44,558.585 1326.53,559.727C1324.63,560.87 1322.69,561.441 1320.72,561.441C1317.49,561.441 1315.01,560.377 1313.26,558.248C1311.51,556.12 1310.64,553.017 1310.64,548.94L1310.64,535.229C1310.64,533.93 1310.16,533.034 1309.19,532.541C1308.23,532.048 1306.85,531.802 1305.06,531.802L1305.06,529.382Z" style="fill-rule:nonzero;stroke:white;stroke-width:0.4px;"/>
                <path d="M1375.83,542.152L1375.83,555.661C1375.83,557.453 1376.84,558.349 1378.85,558.349L1381.01,558.349L1381.01,560.903L1365.08,560.903L1365.08,558.349L1366.82,558.349C1369.11,558.349 1370.25,557.565 1370.25,555.997L1370.25,541.48C1370.25,535.61 1368.24,532.675 1364.2,532.675C1361.83,532.675 1359.88,533.661 1358.36,535.633C1356.83,537.604 1356.07,540.113 1356.07,543.16L1356.07,555.661C1356.07,556.647 1356.32,557.341 1356.81,557.744C1357.3,558.148 1358.2,558.349 1359.5,558.349L1361.11,558.349L1361.11,560.903L1345.25,560.903L1345.25,558.349L1347.67,558.349C1349.55,558.349 1350.49,557.565 1350.49,555.997L1350.49,535.364C1350.49,534.064 1350.17,533.18 1349.52,532.709C1348.87,532.239 1347.71,531.914 1346.06,531.735L1346.06,529.382L1355.06,528.845C1355.29,529.875 1355.51,531.04 1355.73,532.339C1355.96,533.639 1356.07,534.714 1356.07,535.565C1357.68,533.236 1359.31,531.533 1360.94,530.458C1362.58,529.382 1364.52,528.845 1366.76,528.845C1371.15,528.845 1374.02,531.264 1375.36,536.103C1378.41,531.264 1382.15,528.845 1386.58,528.845C1389.41,528.845 1391.62,529.83 1393.24,531.802C1394.85,533.773 1395.66,536.529 1395.66,540.068L1395.66,555.661C1395.66,557.453 1396.82,558.349 1399.15,558.349L1400.7,558.349L1400.7,560.903L1384.9,560.903L1384.9,558.349L1386.38,558.349C1388.85,558.349 1390.08,557.453 1390.08,555.661L1390.08,540.068C1390.08,537.783 1389.52,535.991 1388.4,534.692C1387.28,533.392 1385.75,532.743 1383.83,532.743C1381.54,532.743 1379.64,533.74 1378.12,535.733C1376.59,537.727 1375.83,539.867 1375.83,542.152Z" style="fill-rule:nonzero;stroke:white;stroke-width:0.4px;"/>
                <path d="M1415.82,553.577C1416.98,553.577 1417.94,553.97 1418.67,554.754C1419.41,555.538 1419.78,556.512 1419.78,557.677C1419.78,558.842 1419.4,559.828 1418.64,560.634C1417.88,561.441 1416.92,561.844 1415.75,561.844C1414.59,561.844 1413.61,561.452 1412.83,560.668C1412.04,559.884 1411.65,558.909 1411.65,557.744C1411.65,556.669 1412.06,555.706 1412.86,554.854C1413.67,554.003 1414.65,553.577 1415.82,553.577Z" style="fill-rule:nonzero;stroke:white;stroke-width:0.4px;"/>
                <path d="M1454.73,551.561L1456.88,552.166C1455.85,555.258 1454.35,557.644 1452.38,559.324C1450.41,561.004 1448.04,561.844 1445.26,561.844C1440.91,561.844 1437.35,560.41 1434.57,557.543C1431.79,554.675 1430.4,550.799 1430.4,545.916C1430.4,540.673 1431.85,536.45 1434.74,533.247C1437.63,530.043 1441.31,528.441 1445.79,528.441C1448.84,528.441 1451.42,529.315 1453.52,531.062C1455.5,532.675 1456.48,534.557 1456.48,536.708C1456.48,537.918 1456.1,538.948 1455.34,539.8C1454.58,540.651 1453.68,541.077 1452.65,541.077C1451.71,541.077 1450.88,540.741 1450.16,540.068C1449.45,539.396 1449.09,538.523 1449.09,537.447C1449.09,536.73 1449.31,536.014 1449.76,535.297C1449.94,535.028 1450.25,534.58 1450.7,533.952L1450.77,533.684C1450.77,532.967 1450.32,532.317 1449.42,531.735C1448.53,531.152 1447.36,530.861 1445.93,530.861C1442.97,530.861 1440.69,532.115 1439.07,534.625C1437.46,537.134 1436.65,540.696 1436.65,545.311C1436.65,549.567 1437.51,552.883 1439.21,555.258C1440.91,557.632 1443.2,558.82 1446.06,558.82C1449.96,558.82 1452.85,556.4 1454.73,551.561Z" style="fill-rule:nonzero;stroke:white;stroke-width:0.4px;"/>
                <path d="M1474.42,528.441C1478.73,528.441 1482.3,529.987 1485.14,533.079C1487.99,536.17 1489.41,540.225 1489.41,545.244C1489.41,550.172 1487.96,554.171 1485.04,557.24C1482.13,560.31 1478.57,561.844 1474.36,561.844C1470.15,561.844 1466.64,560.287 1463.84,557.173C1461.04,554.059 1459.64,550.06 1459.64,545.176C1459.64,540.293 1461.03,536.282 1463.81,533.146C1466.58,530.01 1470.12,528.441 1474.42,528.441ZM1474.42,530.861C1471.69,530.861 1469.58,532.059 1468.07,534.457C1466.57,536.854 1465.82,540.315 1465.82,544.84C1465.82,549.635 1466.56,553.264 1468.04,555.728C1469.52,558.192 1471.67,559.425 1474.49,559.425C1477.32,559.425 1479.48,558.17 1480.98,555.661C1482.48,553.152 1483.23,549.5 1483.23,544.706C1483.23,540.18 1482.46,536.742 1480.91,534.389C1479.37,532.037 1477.2,530.861 1474.42,530.861Z" style="fill-rule:nonzero;stroke:white;stroke-width:0.4px;"/>
                <path d="M1522.21,542.152L1522.21,555.661C1522.21,557.453 1523.22,558.349 1525.24,558.349L1527.39,558.349L1527.39,560.903L1511.46,560.903L1511.46,558.349L1513.2,558.349C1515.49,558.349 1516.63,557.565 1516.63,555.997L1516.63,541.48C1516.63,535.61 1514.62,532.675 1510.58,532.675C1508.21,532.675 1506.26,533.661 1504.74,535.633C1503.21,537.604 1502.45,540.113 1502.45,543.16L1502.45,555.661C1502.45,556.647 1502.7,557.341 1503.19,557.744C1503.68,558.148 1504.58,558.349 1505.88,558.349L1507.49,558.349L1507.49,560.903L1491.63,560.903L1491.63,558.349L1494.05,558.349C1495.93,558.349 1496.87,557.565 1496.87,555.997L1496.87,535.364C1496.87,534.064 1496.55,533.18 1495.9,532.709C1495.25,532.239 1494.1,531.914 1492.44,531.735L1492.44,529.382L1501.44,528.845C1501.67,529.875 1501.89,531.04 1502.12,532.339C1502.34,533.639 1502.45,534.714 1502.45,535.565C1504.06,533.236 1505.69,531.533 1507.32,530.458C1508.96,529.382 1510.9,528.845 1513.14,528.845C1517.53,528.845 1520.4,531.264 1521.74,536.103C1524.79,531.264 1528.53,528.845 1532.96,528.845C1535.79,528.845 1538.01,529.83 1539.62,531.802C1541.23,533.773 1542.04,536.529 1542.04,540.068L1542.04,555.661C1542.04,557.453 1543.2,558.349 1545.53,558.349L1547.08,558.349L1547.08,560.903L1531.28,560.903L1531.28,558.349L1532.76,558.349C1535.23,558.349 1536.46,557.453 1536.46,555.661L1536.46,540.068C1536.46,537.783 1535.9,535.991 1534.78,534.692C1533.66,533.392 1532.13,532.743 1530.21,532.743C1527.92,532.743 1526.02,533.74 1524.5,535.733C1522.97,537.727 1522.21,539.867 1522.21,542.152Z" style="fill-rule:nonzero;stroke:white;stroke-width:0.4px;"/>
            </g>
        </g>
        <g transform="matrix(1,0,0,1,83.9258,-211.396)">
            <g transform="matrix(1,0,0,1,-925.875,-5.54097)">
                <g transform="matrix(0.794886,0,0,1,254.508,0)">
                    <rect x="1112.54" y="436.887" width="257.361" height="215.499"/>
                </g>
                <g transform="matrix(2.51045,0,0,2.51045,-1891.78,-804.656)">
                    <g transform="matrix(68.8891,0,0,68.8891,1215.13,560.903)">
                        <path d="M0.02,-0.684L0.02,-0.721L0.261,-0.721L0.476,-0.152L0.675,-0.721L0.921,-0.721L0.921,-0.684L0.847,-0.684C0.82,-0.684 0.807,-0.67 0.807,-0.643L0.807,-0.072C0.807,-0.049 0.823,-0.037 0.857,-0.037L0.921,-0.037L0.921,-0L0.591,-0L0.591,-0.037L0.661,-0.037C0.674,-0.037 0.684,-0.04 0.692,-0.046C0.7,-0.053 0.704,-0.061 0.704,-0.072L0.704,-0.685L0.465,-0L0.432,-0L0.176,-0.682L0.176,-0.158C0.176,-0.113 0.185,-0.081 0.203,-0.063C0.221,-0.046 0.251,-0.037 0.294,-0.037L0.294,-0L0.02,-0L0.02,-0.037C0.062,-0.037 0.092,-0.046 0.109,-0.062C0.127,-0.079 0.136,-0.109 0.136,-0.152L0.136,-0.65C0.136,-0.673 0.121,-0.684 0.093,-0.684L0.02,-0.684Z" style="fill:white;fill-rule:nonzero;"/>
                    </g>
                </g>
            </g>
            <g transform="matrix(0.709593,0,0,1,-112.741,-5.54097)">
                <rect x="1112.54" y="436.887" width="257.361" height="215.499"/>
            </g>
            <g transform="matrix(2.51045,0,0,2.51045,-2353.93,-810.197)">
                <g transform="matrix(68.8891,0,0,68.8891,1215.13,560.903)">
                    <path d="M0.019,-0.684L0.019,-0.721L0.391,-0.721C0.435,-0.721 0.473,-0.716 0.503,-0.706C0.534,-0.696 0.565,-0.676 0.596,-0.647C0.669,-0.578 0.705,-0.483 0.705,-0.362C0.705,-0.259 0.681,-0.177 0.633,-0.114C0.584,-0.052 0.516,-0.015 0.429,-0.004C0.42,-0.003 0.407,-0.002 0.391,-0.001C0.375,-0 0.362,-0 0.352,-0L0.019,-0L0.019,-0.037L0.087,-0.037C0.118,-0.037 0.134,-0.048 0.134,-0.071L0.134,-0.652C0.134,-0.673 0.12,-0.684 0.093,-0.684L0.019,-0.684ZM0.363,-0.684L0.281,-0.684C0.252,-0.684 0.237,-0.672 0.237,-0.649L0.237,-0.072C0.237,-0.049 0.255,-0.037 0.291,-0.037L0.352,-0.037C0.435,-0.037 0.495,-0.062 0.532,-0.113C0.569,-0.163 0.587,-0.242 0.587,-0.35C0.587,-0.465 0.569,-0.549 0.533,-0.603C0.496,-0.657 0.44,-0.684 0.363,-0.684Z" style="fill:white;fill-rule:nonzero;"/>
                </g>
            </g>
            <g transform="matrix(2.51045,0,0,2.51045,-2635.68,-807.018)">
                <path d="M1224.27,533.952C1224.27,534.132 1224.65,534.871 1225.42,536.17C1225.82,536.842 1226.02,537.447 1226.02,537.985C1226.02,540.225 1224.86,541.345 1222.53,541.345C1221.36,541.345 1220.41,540.998 1219.67,540.304C1218.93,539.609 1218.56,538.612 1218.56,537.313C1218.56,534.983 1219.86,532.933 1222.46,531.163C1225.06,529.393 1228.31,528.509 1232.2,528.509C1235.74,528.509 1238.53,529.281 1240.57,530.827C1242.61,532.373 1243.63,534.378 1243.63,536.842L1243.63,554.115C1243.63,557.028 1244.53,558.484 1246.32,558.484C1246.81,558.484 1247.27,558.405 1247.7,558.248C1248.12,558.092 1248.58,557.834 1249.07,557.476L1250.35,559.29C1248.74,560.993 1246.95,561.844 1244.97,561.844C1241.88,561.844 1239.66,559.962 1238.32,556.199C1236.35,558.26 1234.65,559.671 1233.21,560.433C1231.46,561.374 1229.34,561.844 1226.83,561.844C1223.74,561.844 1221.33,561.172 1219.6,559.828C1217.88,558.484 1217.02,556.691 1217.02,554.451C1217.02,551.27 1218.86,548.57 1222.56,546.353C1226.26,544.135 1231.42,542.645 1238.05,541.883L1238.05,537.178C1238.05,535.341 1237.37,533.84 1236,532.675C1234.63,531.511 1232.92,530.928 1230.86,530.928C1229.11,530.928 1227.58,531.275 1226.26,531.97C1224.93,532.664 1224.27,533.325 1224.27,533.952ZM1238.05,548.671L1238.05,544.168C1232.85,544.885 1229.08,545.972 1226.73,547.428C1224.38,548.884 1223.2,551.001 1223.2,553.779C1223.2,555.482 1223.66,556.815 1224.58,557.778C1225.5,558.741 1226.74,559.223 1228.31,559.223C1230.9,559.223 1233.18,558.226 1235.13,556.232C1237.08,554.238 1238.05,551.718 1238.05,548.671Z" style="fill-rule:nonzero;stroke:white;stroke-width:0.4px;"/>
                <path d="M1252.43,531.802L1252.43,529.382L1263.73,528.845L1263.73,541.547C1264.98,537.291 1266.46,534.109 1268.16,532.003C1269.86,529.898 1271.97,528.845 1274.48,528.845C1276.18,528.845 1277.54,529.371 1278.55,530.424C1279.55,531.477 1280.06,532.922 1280.06,534.759C1280.06,536.014 1279.72,537.044 1279.05,537.851C1278.38,538.657 1277.5,539.06 1276.43,539.06C1275.44,539.06 1274.65,538.713 1274.04,538.019C1273.44,537.324 1273.13,536.417 1273.13,535.297C1273.13,534.669 1273.29,534.02 1273.61,533.348C1273.92,532.675 1274.08,532.272 1274.08,532.138C1274.08,532.048 1273.99,531.959 1273.81,531.869C1273.76,531.869 1273.65,531.847 1273.47,531.802C1271.54,531.802 1269.58,533.672 1267.59,537.414C1265.6,541.155 1264.6,545.109 1264.6,549.276L1264.6,555.997C1264.6,557.565 1265.79,558.349 1268.16,558.349L1272.19,558.349L1272.19,560.903L1252.64,560.903L1252.64,558.349L1255.73,558.349C1257.92,558.349 1259.02,557.632 1259.02,556.199L1259.02,536.17C1259.02,533.258 1257.74,531.802 1255.19,531.802L1252.43,531.802Z" style="fill-rule:nonzero;stroke:white;stroke-width:0.4px;"/>
                <path d="M1281.67,513.723L1281.67,511.236L1293.7,510.564L1293.7,544.975L1303.98,536.036C1304.39,535.677 1304.72,535.308 1304.99,534.927C1305.26,534.546 1305.39,534.176 1305.39,533.818C1305.39,532.474 1303.71,531.802 1300.35,531.802L1300.35,529.382L1317.09,529.382L1317.09,531.802C1313.95,531.802 1311.42,532.675 1309.5,534.423L1302.24,540.808L1313.93,556.938C1314.69,557.879 1315.95,558.349 1317.69,558.349L1319.44,558.349L1319.44,560.903L1302.24,560.903L1302.24,558.349L1303.98,558.349C1305.06,558.349 1305.87,558.271 1306.4,558.114C1306.94,557.957 1307.21,557.655 1307.21,557.207C1307.21,556.803 1307.1,556.49 1306.87,556.266L1298.34,544.303L1293.7,548.402L1293.7,556.266C1293.7,557.655 1294.75,558.349 1296.86,558.349L1299.08,558.349L1299.08,560.903L1282.14,560.903L1282.14,558.349L1284.83,558.349C1287.02,558.349 1288.12,557.476 1288.12,555.728L1288.12,516.949C1288.12,514.798 1286.55,513.723 1283.42,513.723L1281.67,513.723Z" style="fill-rule:nonzero;stroke:white;stroke-width:0.4px;"/>
            </g>
            <g transform="matrix(1,0,0,1,859.331,473.236)">
                <path d="M40.325,44.881C51.124,44.881 60.094,48.761 67.237,56.523C74.379,64.284 77.951,74.464 77.951,87.062C77.951,99.435 74.295,109.474 66.984,117.179C59.672,124.884 50.73,128.737 40.156,128.737C29.583,128.737 20.781,124.828 13.751,117.011C6.721,109.193 3.206,99.154 3.206,86.893C3.206,74.633 6.693,64.565 13.667,56.691C20.641,48.818 29.527,44.881 40.325,44.881ZM40.325,50.955C33.464,50.955 28.149,53.964 24.381,59.982C20.613,65.999 18.728,74.689 18.728,86.05C18.728,98.085 20.584,107.196 24.296,113.383C28.008,119.57 33.407,122.663 40.494,122.663C47.58,122.663 53.008,119.513 56.776,113.214C60.544,106.915 62.428,97.748 62.428,85.712C62.428,74.351 60.488,65.718 56.607,59.813C52.726,53.908 47.299,50.955 40.325,50.955Z" style="fill-rule:nonzero;stroke:white;stroke-width:1px;"/>
                <path d="M83.181,53.148L83.181,47.243L117.939,47.243L117.939,53.148L113.214,53.148C109.165,53.148 107.14,54.442 107.14,57.029C107.14,57.479 107.196,57.985 107.309,58.547C107.534,59.447 107.759,60.235 107.984,60.91L125.7,105.622L141.054,63.103C139.142,59.054 137.511,56.467 136.161,55.342C134.361,53.879 131.268,53.148 126.881,53.148L126.881,47.243L165.181,47.243L165.181,53.148L161.807,53.148C159.107,53.148 157.167,53.401 155.986,53.908C154.805,54.414 154.214,55.51 154.214,57.198C154.214,58.435 154.439,59.672 154.889,60.91L172.943,105.622L187.284,65.971C187.509,65.296 187.791,64.2 188.128,62.681C188.465,61.163 188.634,60.01 188.634,59.222C188.634,57.085 187.762,55.539 186.019,54.582C184.275,53.626 181.604,53.148 178.005,53.148L178.005,47.243L209.05,47.243L209.05,53.148C205.225,53.823 202.301,55.004 200.276,56.691C198.251,58.379 196.62,61.078 195.383,64.79L172.268,128.737L167.375,128.737L145.103,73.395L125.194,128.737L120.301,128.737L92.124,58.885C91.111,56.523 90.015,54.976 88.834,54.245C87.652,53.514 85.768,53.148 83.181,53.148Z" style="fill-rule:nonzero;stroke:white;stroke-width:1px;"/>
                <path d="M214.449,52.811L214.449,47.243L240.77,45.893C241.557,49.493 242.148,52.67 242.542,55.426C242.935,58.182 243.132,60.741 243.132,63.103C250.106,51.63 259.724,45.893 271.984,45.893C279.858,45.893 285.988,48.368 290.375,53.317C294.762,58.266 296.955,65.071 296.955,73.733L296.955,112.202C296.955,115.014 297.546,117.011 298.727,118.192C299.908,119.373 302.073,119.963 305.223,119.963L310.96,119.963L310.96,126.375L269.116,126.375L269.116,119.963L272.997,119.963C279.633,119.963 282.951,117.601 282.951,112.877L282.951,79.132C282.951,63.159 277.046,55.173 265.235,55.173C259.049,55.173 253.818,57.704 249.544,62.766C245.269,67.827 243.132,74.52 243.132,82.844L243.132,112.202C243.132,115.126 243.751,117.151 244.988,118.276C246.226,119.401 248.475,119.963 251.737,119.963L257.136,119.963L257.136,126.375L215.293,126.375L215.293,119.963L220.692,119.963C226.316,119.963 229.128,117.995 229.128,114.058L229.128,63.103C229.128,56.242 225.641,52.811 218.667,52.811L214.449,52.811Z" style="fill-rule:nonzero;stroke:white;stroke-width:1px;"/>
                <rect x="325.132" y="80.65" width="63.103" height="12.654" style="fill-rule:nonzero;stroke:white;stroke-width:1px;"/>
                <path d="M402.577,8.099L402.577,1.687L463.993,1.687C477.491,1.687 488.008,4.752 495.544,10.883C503.081,17.013 506.849,25.309 506.849,35.77C506.849,46.231 502.884,54.582 494.954,60.825C487.024,67.068 476.141,70.189 462.306,70.189L440.034,70.189L440.034,112.708C440.034,117.545 442.734,119.963 448.133,119.963L462.306,119.963L462.306,126.375L402.577,126.375L402.577,119.963L414.894,119.963C419.731,119.963 422.149,118.164 422.149,114.564L422.149,15.354C422.149,10.517 419.45,8.099 414.05,8.099L402.577,8.099ZM440.034,15.691L440.034,63.778L457.075,63.778C467.761,63.778 475.382,61.613 479.937,57.282C484.493,52.951 486.771,45.556 486.771,35.095C486.771,24.071 484.296,16.704 479.347,12.992C475.072,9.73 466.974,8.099 455.05,8.099C449.314,8.099 445.658,8.38 444.083,8.942C441.384,9.955 440.034,12.204 440.034,15.691Z" style="fill-rule:nonzero;stroke:white;stroke-width:1px;"/>
                <path d="M512.248,47.243L540.256,45.893L540.256,98.198C540.256,104.497 541.859,109.474 545.065,113.13C548.271,116.786 552.461,118.613 557.635,118.613C563.822,118.613 569.136,115.998 573.58,110.768C578.023,105.537 580.244,99.154 580.244,91.618L580.244,61.922C580.244,58.547 579.119,56.27 576.87,55.089C574.62,53.908 571.133,53.317 566.409,53.317L566.409,47.243L594.248,45.893L594.248,110.852C594.248,116.926 597.398,119.963 603.697,119.963L608.759,119.963L608.759,125.7L582.1,126.375L580.413,110.852C575.689,116.364 570.936,120.554 566.156,123.422C561.375,126.29 556.51,127.725 551.561,127.725C543.462,127.725 537.219,125.053 532.833,119.71C528.446,114.367 526.252,106.578 526.252,96.342L526.252,61.922C526.252,58.66 525.043,56.41 522.625,55.173C520.206,53.936 516.747,53.317 512.248,53.317L512.248,47.243Z" style="fill-rule:nonzero;stroke:white;stroke-width:1px;"/>
                <path d="M613.483,1.687L642.166,0L642.166,58.885C648.803,49.549 656.676,44.881 665.788,44.881C675.799,44.881 683.925,48.508 690.168,55.764C696.411,63.019 699.533,72.833 699.533,85.206C699.533,97.354 696.214,107.478 689.578,115.576C682.941,123.675 674.168,127.725 663.257,127.725C654.258,127.725 645.991,123.45 638.454,114.902C636.879,117.489 635.361,119.851 633.899,121.988C632.436,124.125 630.862,126.037 629.174,127.725L625.8,126.375C626.475,123.338 627.037,119.991 627.487,116.336C627.937,112.68 628.162,109.277 628.162,106.128L628.162,16.872C628.162,14.06 627.15,11.867 625.125,10.292C623.1,8.717 620.344,7.93 616.857,7.93L613.483,7.93L613.483,1.687ZM663.594,52.473C649.309,52.473 642.166,64.622 642.166,88.918C642.166,99.829 643.994,108.096 647.65,113.72C651.305,119.345 656.395,122.157 662.919,122.157C669.443,122.157 674.589,119.007 678.358,112.708C682.126,106.409 684.01,98.254 684.01,88.243C684.01,64.397 677.205,52.473 663.594,52.473Z" style="fill-rule:nonzero;stroke:white;stroke-width:1px;"/>
                <path d="M705.438,1.687L736.652,0L736.652,114.564C736.652,116.139 737.271,117.432 738.508,118.445C739.745,119.457 741.32,119.963 743.232,119.963L751.5,119.963L751.5,126.375L706.788,126.375L706.788,119.963L714.718,119.963C720.004,119.963 722.648,117.601 722.648,112.877L722.648,16.872C722.648,14.06 721.748,11.867 719.948,10.292C718.148,8.717 715.674,7.93 712.524,7.93L705.438,7.93L705.438,1.687Z" style="fill-rule:nonzero;stroke:white;stroke-width:1px;"/>
                <path d="M778.496,0C781.083,-0 783.332,0.956 785.245,2.868C787.157,4.781 788.113,7.086 788.113,9.786C788.113,12.373 787.213,14.567 785.413,16.366C783.614,18.166 781.364,19.066 778.664,19.066C775.965,19.066 773.715,18.166 771.915,16.366C770.116,14.567 769.216,12.373 769.216,9.786C769.216,7.199 770.144,4.921 772,2.953C773.856,0.984 776.021,-0 778.496,0ZM756.73,53.654L756.73,47.243L788.113,45.893L788.113,114.227C788.113,118.051 790.194,119.963 794.356,119.963L803.298,119.963L803.298,126.375L758.417,126.375L758.417,119.963L766.685,119.963C771.634,119.963 774.109,117.601 774.109,112.877L774.109,63.103C774.109,56.804 770.509,53.654 763.31,53.654L756.73,53.654Z" style="fill-rule:nonzero;stroke:white;stroke-width:1px;"/>
                <path d="M808.866,96.679L814.434,96.679C817.696,105.79 821.52,112.399 825.907,116.504C830.294,120.61 836.087,122.663 843.286,122.663C849.023,122.663 853.606,121.341 857.037,118.698C860.468,116.054 862.183,112.652 862.183,108.49C862.183,101.853 858.077,97.804 849.866,96.342L828.101,91.618C822.589,90.268 818.23,87.681 815.025,83.856C811.819,80.032 810.216,75.645 810.216,70.696C810.216,63.947 812.662,58.126 817.555,53.233C822.448,48.34 828.944,45.893 837.043,45.893C844.017,45.893 850.372,48.03 856.109,52.305L861.677,46.399L865.22,46.399L867.245,74.576L861.677,74.576C859.315,66.927 856.109,61.247 852.06,57.535C848.01,53.823 842.724,51.967 836.2,51.967C830.8,51.967 826.554,53.289 823.461,55.932C820.368,58.576 818.821,61.809 818.821,65.634C818.821,72.383 830.294,77.782 853.241,81.831C858.865,82.731 863.42,85.206 866.907,89.255C870.394,93.305 872.138,98.085 872.138,103.597C872.138,110.908 869.382,116.926 863.87,121.65C858.359,126.375 851.441,128.737 843.117,128.737C838.73,128.737 834.878,128.146 831.56,126.965C828.241,125.784 824.782,123.788 821.183,120.976L815.109,128.062L810.553,128.062L808.866,96.679Z" style="fill-rule:nonzero;stroke:white;stroke-width:1px;"/>
                <path d="M877.031,7.93L877.031,1.687L907.064,0L907.064,61.078C915.388,50.392 924.949,45.049 935.747,45.049C943.621,45.049 949.751,47.693 954.138,52.98C958.525,58.266 960.718,65.803 960.718,75.589L960.718,113.046C960.718,117.657 963.249,119.963 968.311,119.963L975.06,119.963L975.06,126.375L932.373,126.375L932.373,119.963L937.266,119.963C943.565,119.963 946.714,117.657 946.714,113.046L946.714,75.589C946.714,69.177 945.168,64.087 942.074,60.319C938.981,56.551 934.735,54.667 929.336,54.667C923.486,54.667 918.312,57.141 913.813,62.091C909.314,67.04 907.064,73.283 907.064,80.819L907.064,112.202C907.064,115.126 907.626,117.151 908.751,118.276C909.876,119.401 911.788,119.963 914.488,119.963L921.237,119.963L921.237,126.375L879.73,126.375L879.73,119.963L884.286,119.963C890.248,119.963 893.228,117.376 893.228,112.202L893.228,18.054C893.228,11.305 889.741,7.93 882.768,7.93L877.031,7.93Z" style="fill-rule:nonzero;stroke:white;stroke-width:1px;"/>
                <path d="M1047.78,102.416L1053.35,104.778C1045.14,120.751 1033.27,128.737 1017.75,128.737C1007.06,128.737 998.147,124.941 991.004,117.348C983.862,109.755 980.29,99.941 980.29,87.906C980.29,75.195 983.777,64.847 990.751,56.86C997.725,48.874 1006.56,44.881 1017.24,44.881C1028.04,44.881 1036.67,48.677 1043.14,56.27C1049.61,63.862 1052.84,74.351 1052.84,87.737L996.15,87.737C996.15,92.124 996.432,96.004 996.994,99.379C997.557,102.753 998.513,105.678 999.862,108.153C1004.47,116.814 1011.62,121.144 1021.29,121.144C1032.31,121.144 1041.14,114.902 1047.78,102.416ZM996.15,81.325L1030.4,81.325C1034.68,81.325 1036.81,78.513 1036.81,72.889C1036.81,66.59 1034.93,61.219 1031.16,56.776C1027.39,52.333 1022.81,50.111 1017.41,50.111C1011.11,50.111 1005.99,52.867 1002.06,58.379C998.119,63.89 996.15,71.539 996.15,81.325Z" style="fill-rule:nonzero;stroke:white;stroke-width:1px;"/>
                <path d="M1059.25,53.317L1059.25,47.243L1087.6,45.893L1087.6,77.782C1090.75,67.096 1094.46,59.11 1098.74,53.823C1103.01,48.536 1108.3,45.893 1114.6,45.893C1118.87,45.893 1122.27,47.215 1124.8,49.858C1127.33,52.501 1128.6,56.129 1128.6,60.741C1128.6,63.89 1127.76,66.478 1126.07,68.502C1124.38,70.527 1122.19,71.539 1119.49,71.539C1117.01,71.539 1115.02,70.668 1113.5,68.924C1111.98,67.181 1111.22,64.903 1111.22,62.091C1111.22,60.516 1111.61,58.885 1112.4,57.198C1113.19,55.51 1113.58,54.498 1113.58,54.161C1113.58,53.936 1113.36,53.711 1112.91,53.486C1112.8,53.486 1112.51,53.429 1112.06,53.317C1107.23,53.317 1102.31,58.013 1097.3,67.406C1092.3,76.798 1089.79,86.724 1089.79,97.185L1089.79,114.058C1089.79,117.995 1092.77,119.963 1098.74,119.963L1108.86,119.963L1108.86,126.375L1059.76,126.375L1059.76,119.963L1067.52,119.963C1073.03,119.963 1075.79,118.164 1075.79,114.564L1075.79,64.284C1075.79,56.973 1072.58,53.317 1066.17,53.317L1059.25,53.317Z" style="fill-rule:nonzero;stroke:white;stroke-width:1px;"/>
            </g>
        </g>
        <g transform="matrix(2.51045,0,0,2.51045,-1954.19,-741.588)">
            <path d="M1227.9,522.46L1227.9,529.382L1235.77,529.382L1235.77,532.339L1227.9,532.339L1227.9,555.325C1227.9,557.341 1229.09,558.349 1231.46,558.349L1235.77,558.349L1235.77,560.903L1216.48,560.903L1216.48,558.349L1219.17,558.349C1220.29,558.349 1221.09,558.17 1221.59,557.812C1222.08,557.453 1222.33,556.803 1222.33,555.863L1222.33,532.339L1216.88,532.339L1216.88,529.382L1222.33,529.382L1222.33,527.03C1222.33,521.698 1223.43,517.509 1225.65,514.462C1227.87,511.415 1230.79,509.892 1234.42,509.892C1236.89,509.892 1238.84,510.497 1240.27,511.706C1241.7,512.916 1242.42,514.551 1242.42,516.613C1242.42,517.912 1242.11,518.942 1241.48,519.704C1240.85,520.466 1239.98,520.847 1238.86,520.847C1237.92,520.847 1237.13,520.555 1236.51,519.973C1235.88,519.391 1235.57,518.584 1235.57,517.553C1235.57,516.792 1235.81,516.097 1236.3,515.47C1236.53,515.201 1237,514.753 1237.71,514.126L1237.78,513.857C1237.78,513.454 1237.48,513.095 1236.88,512.782C1236.27,512.468 1235.54,512.311 1234.69,512.311C1232.63,512.311 1230.98,513.185 1229.75,514.932C1228.52,516.68 1227.9,519.189 1227.9,522.46Z" style="fill-rule:nonzero;stroke:white;stroke-width:0.4px;"/>
            <path d="M1255.06,528.441C1259.36,528.441 1262.93,529.987 1265.78,533.079C1268.62,536.17 1270.04,540.225 1270.04,545.244C1270.04,550.172 1268.59,554.171 1265.67,557.24C1262.76,560.31 1259.2,561.844 1254.99,561.844C1250.78,561.844 1247.27,560.287 1244.47,557.173C1241.67,554.059 1240.27,550.06 1240.27,545.176C1240.27,540.293 1241.66,536.282 1244.44,533.146C1247.21,530.01 1250.75,528.441 1255.06,528.441ZM1255.06,530.861C1252.32,530.861 1250.2,532.059 1248.7,534.457C1247.2,536.854 1246.45,540.315 1246.45,544.84C1246.45,549.635 1247.19,553.264 1248.67,555.728C1250.15,558.192 1252.3,559.425 1255.12,559.425C1257.94,559.425 1260.11,558.17 1261.61,555.661C1263.11,553.152 1263.86,549.5 1263.86,544.706C1263.86,540.18 1263.09,536.742 1261.54,534.389C1260,532.037 1257.83,530.861 1255.06,530.861Z" style="fill-rule:nonzero;stroke:white;stroke-width:0.4px;"/>
            <path d="M1272.33,531.802L1272.33,529.382L1283.62,528.845L1283.62,541.547C1284.87,537.291 1286.35,534.109 1288.06,532.003C1289.76,529.898 1291.86,528.845 1294.37,528.845C1296.08,528.845 1297.43,529.371 1298.44,530.424C1299.45,531.477 1299.95,532.922 1299.95,534.759C1299.95,536.014 1299.62,537.044 1298.94,537.851C1298.27,538.657 1297.4,539.06 1296.32,539.06C1295.34,539.06 1294.54,538.713 1293.94,538.019C1293.33,537.324 1293.03,536.417 1293.03,535.297C1293.03,534.669 1293.18,534.02 1293.5,533.348C1293.81,532.675 1293.97,532.272 1293.97,532.138C1293.97,532.048 1293.88,531.959 1293.7,531.869C1293.66,531.869 1293.54,531.847 1293.36,531.802C1291.44,531.802 1289.48,533.672 1287.48,537.414C1285.49,541.155 1284.49,545.109 1284.49,549.276L1284.49,555.997C1284.49,557.565 1285.68,558.349 1288.06,558.349L1292.09,558.349L1292.09,560.903L1272.53,560.903L1272.53,558.349L1275.62,558.349C1277.82,558.349 1278.91,557.632 1278.91,556.199L1278.91,536.17C1278.91,533.258 1277.64,531.802 1275.08,531.802L1272.33,531.802Z" style="fill-rule:nonzero;stroke:white;stroke-width:0.4px;"/>
        </g>
    </g>
</svg>
